<svg width="114" height="33" viewBox="0 0 114 33" fill="none" xmlns="http://www.w3.org/2000/svg">
<g clip-path="url(#clip0_1_6)">
<path d="M18.4946 8.38263H14.2726L8.63885 22.2437H12.2535L16.3836 11.5377L20.5137 22.2437H24.1251L18.4946 8.38263Z" fill="#FFB500"/>
<path d="M14.857 32.4278L14.8274 32.4245H14.8242H14.8209H14.8176H14.8143C12.6902 32.2111 10.6514 31.5676 8.80632 30.563C5.25076 28.6194 2.43389 25.3232 1.20603 21.134C-0.0251208 16.9416 0.562547 12.6473 2.50284 9.09505C3.50089 7.26639 4.86008 5.63142 6.51474 4.30835L6.54757 4.28208L6.55085 4.2788C9.00002 2.27285 11.9974 0.936645 15.2444 0.516413C15.2608 0.51313 15.3692 0.503281 15.3856 0.503281L16.748 3.85529C16.7283 3.85529 16.6167 3.86514 16.597 3.86842C13.7014 4.04899 11.0158 5.13568 8.85228 6.8757C8.81945 6.90197 8.78333 6.93151 8.7505 6.95778C8.69797 7.00046 8.64216 7.04642 8.58963 7.09238L8.58635 7.09567L8.58307 7.09895L8.57978 7.10223L8.5765 7.10552L8.57322 7.1088C8.56009 7.12193 8.54367 7.13178 8.53054 7.14163C7.30267 8.15281 6.29477 9.38396 5.54295 10.7563C4.02618 13.5305 3.56983 16.8858 4.53177 20.1623C5.49371 23.4387 7.69007 26.016 10.4643 27.5294C11.9351 28.3338 13.5668 28.8394 15.2641 28.9937C18.9575 29.299 22.4409 28.1105 25.1067 25.924C25.2348 25.819 25.3628 25.7106 25.4908 25.599L26.8533 28.9543C23.544 31.4888 19.3187 32.8316 14.857 32.4343V32.4278Z" fill="#FFB500"/>
<path d="M49.5064 6.01226H46.8504V21.5313H49.5064V6.01226ZM53.19 9.11475C54.1486 9.11475 54.8644 8.42202 54.8644 7.44039C54.8644 6.48173 54.1486 5.76603 53.19 5.76603C52.2313 5.76603 51.4762 6.48173 51.4762 7.44039C51.4762 8.42202 52.2116 9.11475 53.19 9.11475ZM54.4967 10.4411H51.821V21.528H54.4967V10.4411ZM62.4679 7.96896C62.9571 7.96896 63.5513 8.11342 64.2441 8.41874L65.0812 6.33728C64.0996 5.82841 63.1016 5.58218 62.1002 5.58218C59.4672 5.58218 57.6911 7.13506 57.6911 9.93223V10.4411H55.9346V12.6867H57.6911V21.528H60.3471V12.6867H63.8173V10.4411H60.3471V9.99133C60.3471 8.68467 61.1022 7.96896 62.4712 7.96896H62.4679Z" fill="black"/>
<path d="M42.09 15.9764C42.09 16.935 41.7847 17.7328 41.1707 18.3861C40.5568 19.0395 39.608 19.3678 38.6493 19.3678C37.6907 19.3678 36.9093 19.046 36.302 18.3861C35.7044 17.7394 35.4024 16.935 35.4024 15.9764C35.4024 15.0374 35.7044 14.2363 36.302 13.5863C36.9093 12.9264 37.6907 12.6046 38.6493 12.6046C39.608 12.6046 40.5601 12.9297 41.1707 13.5863C41.7847 14.2396 42.09 15.0374 42.09 15.9764ZM42.0276 11.472C41.0361 10.6184 39.8214 10.1785 38.413 10.1785C36.8404 10.1785 35.34 10.73 34.2993 11.8134C33.2586 12.8968 32.7464 14.2856 32.7464 15.937C32.7464 17.5916 33.2586 19.0001 34.2993 20.1229C35.34 21.2457 36.8207 21.7972 38.413 21.7972C39.8641 21.7972 40.9376 21.377 42.0276 20.507V21.5313H44.5589V10.4444H42.0276V11.4753V11.472Z" fill="black"/>
<path d="M72.1924 21.7775C73.3152 21.7775 74.2542 21.4492 74.9699 20.8189C75.6856 20.1852 76.0533 19.4104 76.0533 18.4912C76.0533 17.306 75.4393 16.3867 74.1951 15.7334C73.8897 15.5693 73.3973 15.346 72.7669 15.0801L71.5226 14.5088C70.9317 14.2232 70.6231 13.7734 70.6231 13.1825C70.6231 12.4274 71.1943 11.7937 72.2351 11.7937C73.2134 11.7937 73.9915 12.2238 74.5431 13.0807L75.7676 11.9973C75.1143 10.8548 73.7453 10.2408 72.3565 10.2408C71.3158 10.2408 70.4589 10.5265 69.8253 11.0977C69.1917 11.669 68.8863 12.3847 68.8863 13.2613C68.8863 14.4038 69.4379 15.2836 70.5213 15.8746C70.7675 16.019 71.214 16.2226 71.8903 16.5082C72.5634 16.7938 72.9935 16.9974 73.2167 17.1221C73.9127 17.5095 74.2574 17.9987 74.2574 18.5929C74.2574 19.4301 73.4596 20.1655 72.258 20.1655C71.2567 20.1655 70.2357 19.5746 69.6021 18.4091L68.2133 19.3678C69.0308 20.9797 70.5607 21.7775 72.1957 21.7775H72.1924ZM79.7237 21.5313V15.4248C79.7237 14.4235 80.0028 13.6027 80.5609 12.9756C81.1256 12.3387 81.8676 12.017 82.7868 12.017C84.4809 12.017 85.6267 13.2219 85.6267 15.4281V21.5346H87.4422V14.9192C87.4422 13.4287 87.0351 12.3059 86.1979 11.5081C85.3607 10.7103 84.3397 10.3229 83.1348 10.3229C81.6443 10.3229 80.3377 10.9565 79.6646 11.9579V6.07792H77.9082V21.5346H79.727L79.7237 21.5313ZM89.1067 16.0584C89.1067 17.6704 89.6386 19.0394 90.7187 20.1426C91.7988 21.2457 93.1679 21.7972 94.8225 21.7972C96.4772 21.7972 97.8462 21.2457 98.9264 20.1426C100.006 19.0394 100.538 17.6704 100.538 16.0584C100.538 14.4661 99.9802 13.1234 98.9034 12.017C97.8167 10.9007 96.4739 10.3426 94.8192 10.3426C93.1646 10.3426 91.8021 10.9007 90.7154 12.017C89.6386 13.1234 89.1034 14.4661 89.1034 16.0584H89.1067ZM98.7031 16.0584C98.7031 17.1812 98.3354 18.1432 97.5803 18.9377C96.8252 19.7322 95.9059 20.1229 94.8225 20.1229C93.7391 20.1229 92.8199 19.7355 92.0648 18.9377C91.3097 18.1432 90.9419 17.1812 90.9419 16.0584C90.9419 14.9553 91.3097 14.0164 92.0648 13.2219C92.8199 12.4274 93.7391 12.017 94.8225 12.017C95.9059 12.017 96.8252 12.4241 97.5803 13.2219C98.3354 14.0164 98.7031 14.9586 98.7031 16.0584ZM107.984 10.3426C106.353 10.3426 105.023 10.9959 104.025 12.2829V10.6085H102.206V26.0258H104.025V19.9193C105.003 21.1636 106.313 21.7972 107.945 21.7972C109.518 21.7972 110.831 21.2489 111.865 20.1426C112.912 19.0263 113.437 17.6704 113.437 16.0781C113.437 14.4858 112.906 13.1365 111.865 12.0137C110.824 10.8909 109.537 10.3393 107.984 10.3393V10.3426ZM107.781 20.1229C106.615 20.1229 105.686 19.7453 104.984 18.9574C104.278 18.1727 103.943 17.2009 103.943 16.0584C103.943 14.9356 104.291 13.9737 104.984 13.1989C105.696 12.4011 106.619 12.0137 107.781 12.0137C108.923 12.0137 109.839 12.4077 110.558 13.1989C111.267 13.9802 111.619 14.9356 111.619 16.0584C111.619 17.2009 111.277 18.1662 110.558 18.9574C109.849 19.7387 108.923 20.1229 107.781 20.1229Z" fill="black"/>
</g>
<defs>
<clipPath id="clip0_1_6">
<rect width="112.873" height="32" fill="white" transform="translate(0.563416 0.5)"/>
</clipPath>
</defs>
</svg>
